<svg width="48px" height="47px" viewBox="-1 0 48 47" version="1.1" xmlns="http://www.w3.org/2000/svg">
    <!-- Generator: Sketch 42 (36781) - http://www.bohemiancoding.com/sketch -->
    <desc>Created with Sketch.</desc>
    <defs></defs>
    <g id="Group" stroke="none" stroke-width="1" fill="none" fill-rule="evenodd">
        <path d="M0.014,28.77 C3.267,22.04 2.354,27.166 0.018,17.68 C0.016,21.506 0.014,25.58 0.014,28.77" id="Shape" fill="#FFFFFF" fill-rule="nonzero"></path>
        <g id="Clipped" fill-rule="nonzero" fill="#FFFFFF">
            <path d="M4.353,0.736 C-2.921,0.717 0.54,16.296 3.165,23.04 C5.591,19.216 8.494,15.742 12.037,12.716 C19.051,6.716 28.497,2.561 41.313,0.736 L4.353,0.736 L4.353,0.736 Z" id="Shape"></path>
        </g>
        <path d="M8.465,34.722 C6.79536355,32.7587487 5.33325189,30.6280804 4.102,28.364 C2.532,31.334 1.197,34.525 0.025,37.902 L0.025,46.924 L29.325,46.977 C20.186,44.786 13.339,40.428 8.465,34.722" id="Shape" fill="#FFFFFF" fill-rule="nonzero"></path>
        <g id="Clipped" transform="translate(4.000000, 3.000000)" fill-rule="nonzero" fill="#FFFFFF">
            <path d="M42.15,0.663 C27.487,2.059 17.475,6.239 10.303,12.361 C6.455,15.649 3.403,19.528 0.903,23.909 C8.025,37.715 22.291,43.976 36.879,43.999 C36.879,43.999 42.378,44.184 42.378,38.077 L42.378,0.617 C42.305,0.635 42.229,0.655 42.15,0.663" id="Shape"></path>
        </g>
    </g>
</svg>